<svg width="230" height="94" viewBox="0 0 230 94" fill="none" xmlns="http://www.w3.org/2000/svg">
<g opacity="0.5">
<path d="M112.09 93.8183C173.806 93.8183 223.836 87.2747 223.836 79.2028C223.836 71.131 173.806 64.5874 112.09 64.5874C50.3743 64.5874 0.34375 71.131 0.34375 79.2028C0.34375 87.2747 50.3743 93.8183 112.09 93.8183Z" fill="#B8B8C2"/>
</g>
<path d="M114.651 54.1444C113.997 42.8332 123.43 27.8229 126.408 24.4941C125.121 22.8075 125.121 22.8075 121.303 20.3311H121.297C121.297 20.3311 118.304 19.3051 100.292 13.0225C76.1671 4.60733 57.3727 16.9834 47.9749 34.1239C42.8225 43.5214 42.6207 53.417 27.5149 58.4826L26.3364 58.7445C16.8474 60.8754 12.0061 64.4748 9.74455 67.8522C6.81286 72.2307 9.25468 79.198 13.806 79.198H144.215C133.124 78.1392 124.673 70.9717 123.527 70.0577C117.992 65.643 115.006 60.2889 114.651 54.1444Z" fill="#D4D4D4"/>
<g opacity="0.5">
<path d="M80.1232 64.5879C80.1232 64.5879 76.4866 78.0935 94.6094 79.2033C94.6094 79.2033 58.6218 80.7235 80.1232 64.5879Z" fill="#424242"/>
</g>
<path d="M144.195 80.8185H80.5426C77.3082 80.8185 74.4318 78.9534 73.0353 75.9515C71.5998 72.8653 72.0438 69.3618 74.1948 66.8085C77.3899 63.0151 87.4454 59.506 101.363 54.6485C105.447 53.2227 109.671 51.749 114.077 50.1417C114.917 49.8334 115.848 50.2677 116.155 51.1092C116.462 51.95 116.029 52.8798 115.188 53.1869C110.76 54.8019 106.526 56.28 102.431 57.709C90.0175 62.0418 79.2969 65.7832 76.6742 68.8966C75.0851 70.7831 75.2709 73.0717 75.9747 74.5847C76.8464 76.4587 78.5542 77.5774 80.5431 77.5774H144.195C145.091 77.5774 145.816 78.3028 145.816 79.198C145.816 80.0933 145.09 80.8185 144.195 80.8185Z" fill="#424242"/>
<path d="M73.8345 73.7368C73.2357 73.7368 72.6974 73.3196 72.5678 72.7106C72.4187 72.0098 72.8653 71.3216 73.5659 71.1723C78.0361 70.2202 81.0836 69.3958 81.1141 69.3882C81.8047 69.1996 82.5181 69.6091 82.705 70.2999C82.8923 70.9905 82.4843 71.7028 81.7933 71.8901C81.7626 71.899 78.6516 72.7404 74.1059 73.7083C74.0149 73.728 73.924 73.7368 73.8345 73.7368Z" fill="#424242"/>
<path d="M78.5661 80.4943C77.8502 80.4943 77.2695 79.9137 77.2695 79.1977C77.2695 78.5102 77.8048 77.9474 78.4816 77.9038C79.1074 77.66 80.7961 75.747 82.1354 73.7577C82.5356 73.1645 83.3412 73.0074 83.935 73.4063C84.5289 73.8065 84.6864 74.6117 84.287 75.2055C82.6636 77.6181 80.3538 80.4943 78.5661 80.4943ZM78.5661 77.9012H78.5652C78.5652 77.9012 78.5656 77.9012 78.5661 77.9012Z" fill="#424242"/>
<path d="M8.60567 71.9351C8.59465 71.9351 8.58406 71.9351 8.57304 71.9351C7.85714 71.9325 7.27867 71.3501 7.28126 70.634C7.28385 69.9192 7.86405 69.342 8.5778 69.342C8.58947 69.3427 8.59832 69.342 8.60826 69.342C11.0473 69.342 15.5097 68.1088 15.5547 68.096C16.2436 67.9029 16.9588 68.308 17.1514 68.9976C17.3433 69.6869 16.9398 70.4024 16.2503 70.5943C16.0526 70.6494 11.4021 71.9351 8.60567 71.9351Z" fill="#424242"/>
<path d="M10.8947 79.3819C10.5289 79.3819 10.1652 79.228 9.90871 78.9279C9.44347 78.384 9.50744 77.5654 10.0515 77.1002C12.7326 74.8066 16.5656 73.332 16.7276 73.27C17.3949 73.0167 18.1452 73.3504 18.4002 74.0196C18.6554 74.6882 18.32 75.4378 17.6512 75.6928C17.6158 75.7068 14.0708 77.0743 11.7366 79.0703C11.4924 79.2792 11.1929 79.3819 10.8947 79.3819Z" fill="#424242"/>
<g opacity="0.5">
<path d="M15.9423 62.481C15.9423 62.481 9.82372 79.2852 26.3641 79.2417C26.3641 79.2417 6.811 82.2045 8.61794 72.4405C10.4249 62.6765 15.9423 62.481 15.9423 62.481Z" fill="#424242"/>
</g>
<g opacity="0.4">
<path d="M43.9297 43.1567C43.9297 43.1567 60.4167 17.5842 78.562 14.7428C97.6209 11.7586 124.399 24.4941 124.399 24.4941C124.399 24.4941 95.5008 5.86068 75.2137 11.5827C54.9265 17.3048 43.9297 43.1567 43.9297 43.1567Z" fill="white"/>
</g>
<path d="M164.837 80.8179H13.8054C11.4171 80.8179 9.30574 79.4289 8.01266 77.0074C6.32802 73.8509 6.48253 69.8092 8.39752 66.9503C10.4964 63.8153 15.2508 59.5717 25.9805 57.1623L26.9763 56.9491C37.6643 54.2173 40.3051 47.7873 43.363 40.341C44.3116 38.0315 45.2922 35.6437 46.5531 33.3447C55.6274 16.794 74.648 2.3611 100.825 11.4922C118.81 17.7653 126.944 22.913 127.281 23.1291C128.035 23.6114 128.255 24.6127 127.773 25.3662C127.291 26.1202 126.289 26.3399 125.535 25.8594C125.455 25.8084 117.329 20.6814 99.7577 14.5522C75.4927 6.08844 57.8317 19.5145 49.3949 34.9027C48.2218 37.0424 47.276 39.3453 46.3615 41.5725C43.2552 49.135 40.0436 56.9553 27.7168 60.1035L26.675 60.3283C17.0048 62.5004 12.8611 66.1089 11.0902 68.7532C9.63376 70.9283 9.95595 73.7652 10.8717 75.4803C11.2897 76.2634 12.2262 77.5763 13.8047 77.5763H164.836C165.732 77.5763 166.457 78.3018 166.457 79.197C166.457 80.0923 165.732 80.8179 164.837 80.8179Z" fill="#424242"/>
<g opacity="0.4">
<path d="M73.1997 79.198C67.8612 79.4802 65.0769 68.5436 71.1704 64.7664C79.3991 59.6656 112.089 51.4868 112.089 51.4868C112.089 51.4868 84.1978 62.719 81.4692 63.9353C78.7407 65.1517 64.444 76.7414 83.6816 79.198H73.1997Z" fill="#424242"/>
</g>
<path d="M146.842 79.1975C134.758 78.0438 124.638 71.8494 123.39 70.8534C117.36 66.0437 115.018 58.5955 114.631 51.9006C113.919 39.5766 123.14 28.121 126.385 24.4942C124.453 21.9627 120.617 16.0528 121.942 10.4788C122.795 6.88716 125.548 4.16271 130.124 2.38235C131.423 1.87735 132.758 1.62085 134.091 1.62085C140.956 1.62085 146.053 8.30536 147.979 11.2762C151.384 9.896 155.412 8.74208 161.107 8.74208C161.842 8.74208 162.609 8.76132 163.389 8.7987C169.249 9.0794 175.058 10.3632 180.656 12.6144C186.392 14.4879 191.667 17.2385 196.337 20.7902C201.609 24.7997 204.359 28.4748 206.549 32.5956C208.293 32.0625 211.321 31.312 214.551 31.312C219.871 31.312 223.81 33.3681 225.943 37.2577C228.304 41.5624 228.661 45.419 227.007 48.7196C224.553 53.6148 218.289 55.7144 215.027 56.4994C216.178 60.4884 218.246 69.6857 214.993 75.7031C213.527 78.4146 211.758 78.4533 208.63 79.2031L146.842 79.1975Z" fill="#D4D4D4"/>
<path d="M174.956 64.2976C171.509 73.7694 148.357 65.3428 151.804 55.8709C155.251 46.3991 160.65 39.6681 169.622 42.9339C178.394 46.1266 178.404 54.8255 174.956 64.2976Z" fill="#EFEFF4"/>
<path d="M159.028 47.5472C157.721 54.0749 165.008 55.552 165.008 55.552C165.008 55.552 171.54 59.1048 174.735 53.2641C177.929 47.4232 160.335 41.0194 159.028 47.5472Z" fill="#424242"/>
<path d="M134.393 20.8643L142.204 16.4304C142.204 16.4304 136.707 6.99223 131.738 9.76402C125.874 13.0348 134.393 20.8643 134.393 20.8643Z" fill="#424242"/>
<path d="M210.815 48.6713L207.682 40.2539C207.682 40.2539 217.96 36.5575 219.985 41.875C222.374 48.1499 210.815 48.6713 210.815 48.6713Z" fill="#424242"/>
<path d="M195.583 71.245C194.979 72.9044 193.145 73.7599 191.485 73.1559C189.826 72.5519 188.971 70.7171 189.575 69.058C190.179 67.3986 192.013 66.5431 193.672 67.1471C195.332 67.7511 196.187 69.5859 195.583 71.245Z" fill="#EF9EC2"/>
<path d="M137.744 50.1932C137.14 51.8526 135.305 52.7081 133.646 52.1041C131.986 51.5002 131.131 49.6653 131.735 48.0062C132.339 46.3469 134.174 45.4914 135.833 46.0953C137.492 46.6993 138.348 48.5339 137.744 50.1932Z" fill="#EF9EC2"/>
<path d="M191.129 62.4326C190.27 62.4326 188.893 61.3303 183.334 56.1044C182.922 55.7176 182.502 55.3226 182.187 55.03C182.015 54.9585 181.856 54.8489 181.724 54.7013C180.821 53.7004 181.122 53.0098 181.533 52.6065C182.43 51.7279 183.342 52.5698 183.833 53.0212C184.15 53.3125 184.592 53.7283 185.11 54.2151C186.648 55.6616 190.086 58.8941 191.274 59.7152C191.974 59.733 192.537 60.3065 192.537 61.0112C192.537 61.5669 192.213 62.0659 191.713 62.2818C191.514 62.368 191.337 62.4326 191.129 62.4326Z" fill="#424242"/>
<path d="M154.421 44.8488C154.389 44.8488 154.356 44.8475 154.323 44.8454C150.32 44.5472 145.59 44.3529 144.133 44.5048C144.126 44.5122 144.118 44.5193 144.109 44.5266C143.572 44.9995 142.753 44.9469 142.28 44.4076C141.898 43.9726 141.814 43.3652 142.065 42.8599C142.476 42.0366 142.803 41.3879 154.516 42.2592C155.23 42.3124 155.765 42.9345 155.712 43.6485C155.662 44.3302 155.093 44.8488 154.421 44.8488Z" fill="#424242"/>
<path d="M168.253 52.242C168.324 52.7805 169.115 53.1204 170.02 53.0012C170.925 52.8819 171.601 52.3486 171.53 51.8101C171.459 51.2716 170.668 50.9317 169.763 51.0509C168.858 51.1704 168.182 51.7035 168.253 52.242Z" fill="#EFEFF4"/>
<path d="M156.919 38.5463C156.868 38.5463 156.814 38.5429 156.761 38.5355L145.964 37.0264C145.344 36.9399 144.911 36.3664 144.997 35.746C145.084 35.1259 145.656 34.6965 146.278 34.7793L157.075 36.2884C157.696 36.3749 158.129 36.9484 158.042 37.5688C157.963 38.1362 157.477 38.5463 156.919 38.5463Z" fill="#424242"/>
<path d="M193.161 53.1603C192.926 53.1603 192.69 53.0881 192.487 52.9382L184.923 47.3468C184.419 46.9743 184.313 46.264 184.685 45.7603C185.057 45.2562 185.769 45.1501 186.272 45.5222L193.836 51.1135C194.34 51.4858 194.446 52.1961 194.074 52.7C193.851 53.0015 193.508 53.1603 193.161 53.1603Z" fill="#424242"/>
<path d="M146.101 48.1382C147.784 48.1382 149.148 46.7742 149.148 45.0916C149.148 43.409 147.784 42.0449 146.101 42.0449C144.419 42.0449 143.055 43.409 143.055 45.0916C143.055 46.7742 144.419 48.1382 146.101 48.1382Z" fill="#424242"/>
<path d="M183.148 59.626C184.831 59.626 186.195 58.262 186.195 56.5794C186.195 54.8967 184.831 53.5327 183.148 53.5327C181.466 53.5327 180.102 54.8967 180.102 56.5794C180.102 58.262 181.466 59.626 183.148 59.626Z" fill="#424242"/>
<path d="M164.433 65.1042C164.208 65.1042 163.982 65.0465 163.775 64.9244C161.835 63.7798 161.22 61.9737 161.1 60.4194L159.467 61.5348C158.877 61.9387 158.07 61.7881 157.665 61.1956C157.262 60.6043 157.414 59.7977 158.005 59.3938L161.908 56.7266C162.361 56.4169 162.962 56.4264 163.407 56.7525C163.851 57.0786 164.041 57.6489 163.88 58.175C163.842 58.303 162.947 61.4252 165.092 62.6907C165.709 63.0548 165.915 63.8491 165.55 64.4658C165.309 64.8762 164.876 65.1042 164.433 65.1042Z" fill="#424242"/>
<path d="M162.616 59.0931C162.375 59.0931 162.13 59.0259 161.913 58.8854C161.312 58.496 161.139 57.6932 161.528 57.0925L164.521 52.466C164.911 51.8653 165.715 51.6937 166.314 52.0812C166.916 52.4706 167.088 53.2734 166.699 53.8741L163.706 58.5006C163.458 58.8843 163.041 59.0931 162.616 59.0931Z" fill="#424242"/>
<g opacity="0.4">
<path d="M214.993 75.7031C216.701 72.5439 218.743 64.7679 217.238 66.9539C204.943 84.8152 144.869 72.5931 133.184 61.2504C115.423 44.0107 126.385 24.4944 126.385 24.4944C123.14 28.1212 113.919 39.5768 114.631 51.9008C115.018 58.5957 118.272 64.4291 124.301 69.2388C125.55 70.2347 134.758 78.044 146.842 79.1977L208.631 79.2033C211.758 78.4531 213.527 78.4144 214.993 75.7031Z" fill="#686868"/>
</g>
<path d="M193.982 28.7641C193.638 28.7641 193.301 28.6213 193.062 28.3814C192.822 28.1418 192.686 27.8047 192.686 27.4676C192.686 27.1238 192.822 26.7867 193.062 26.5471C193.366 26.2489 193.813 26.1062 194.235 26.197C194.319 26.21 194.397 26.2359 194.475 26.2683C194.552 26.3005 194.63 26.3396 194.701 26.385C194.773 26.4366 194.837 26.4885 194.896 26.5471C195.135 26.7867 195.279 27.1238 195.279 27.4676C195.279 27.8047 195.136 28.1418 194.896 28.3814C194.837 28.44 194.773 28.4981 194.701 28.5435C194.63 28.5891 194.553 28.628 194.475 28.6602C194.397 28.6924 194.319 28.7186 194.235 28.738C194.15 28.751 194.066 28.7641 193.982 28.7641Z" fill="#EFEFF4"/>
<path d="M191.137 25.7907C190.805 25.7907 190.474 25.6643 190.221 25.4119C186.918 22.1152 181.33 20.9968 181.275 20.9858C180.572 20.849 180.113 20.1691 180.248 19.4666C180.384 18.7643 181.063 18.3075 181.766 18.4398C182.026 18.4899 188.18 19.7106 192.053 23.5764C192.56 24.0823 192.561 24.9035 192.054 25.4102C191.802 25.6639 191.469 25.7907 191.137 25.7907Z" fill="#EFEFF4"/>
<g opacity="0.4">
<path d="M114.611 51.9006L109.461 53.5325C109.461 53.5325 112.048 79.2414 133.322 79.1977H144.58C144.58 79.1977 125.629 76.249 119.625 66.9537C113.619 57.6586 114.611 51.9006 114.611 51.9006Z" fill="#686868"/>
</g>
<g opacity="0.4">
<path d="M147.578 12.8317C147.578 12.8317 163.007 10.7417 179.234 15.8287C199.251 22.1037 205.709 34.1274 205.709 34.1274C205.709 34.1274 202.845 20.0716 180.679 12.6146C158.514 5.15753 147.578 12.8317 147.578 12.8317Z" fill="white"/>
</g>
<path d="M208.822 80.8234L146.688 80.8107C134.259 79.6243 123.789 73.2447 122.38 72.1204C114.897 66.1518 113.299 56.9487 113.013 51.9942C112.329 40.1566 120.093 29.3517 124.313 24.4041C121.976 21.0662 119.069 15.5569 120.365 10.1039C121.35 5.96235 124.435 2.85649 129.537 0.871705C131.025 0.293449 132.558 0 134.091 0C140.973 0 146.137 5.83594 148.594 9.29791C151.547 8.20169 155.543 7.12102 161.107 7.12102C161.862 7.12102 162.656 7.14069 163.466 7.17959C169.491 7.46829 175.461 8.78405 181.211 11.0904C187.098 13.0194 192.517 15.8487 197.318 19.4999C201.769 22.885 204.826 26.2828 207.346 30.6845C209.292 30.173 211.845 29.6909 214.55 29.6909C220.498 29.6909 224.929 32.0381 227.364 36.4781C229.995 41.2781 230.363 45.641 228.455 49.4454C226.093 54.1575 220.797 56.5174 217.016 57.6419C218.316 62.7559 219.512 70.753 216.418 76.474C214.791 79.4837 212.632 79.9647 210.133 80.5211C209.779 80.6002 209.404 80.6832 209.008 80.778L208.822 80.8234ZM146.92 77.5771L208.441 77.582C208.786 77.501 209.115 77.4275 209.429 77.358C211.767 76.837 212.643 76.6421 213.567 74.9319C216.563 69.3901 214.497 60.5099 213.47 56.9487L213 55.3205L214.648 54.9235C217.19 54.312 223.342 52.4115 225.558 47.9933C226.96 45.1971 226.611 41.8475 224.521 38.037C222.208 33.8183 217.822 32.9325 214.55 32.9325C211.452 32.9325 208.504 33.6923 207.022 34.1452L205.745 34.5361L205.117 33.356C202.677 28.7644 199.849 25.4973 195.355 22.08C190.83 18.6384 185.715 15.9718 180.152 14.1552L180.051 14.1182C174.622 11.9349 168.991 10.6897 163.311 10.4177C156.278 10.0808 151.698 11.5176 148.587 12.7785L147.346 13.2811L146.618 12.1581C144.881 9.47727 140.181 3.24178 134.09 3.24178C132.96 3.24178 131.823 3.4609 130.71 3.8933C126.662 5.46881 124.242 7.81035 123.518 10.854C122.338 15.8191 126.031 21.3596 127.673 23.5114L128.486 24.5765L127.592 25.5753C124.759 28.7425 115.565 39.9943 116.248 51.8073C116.504 56.2225 117.901 64.403 124.4 69.5872C125.489 70.455 135.336 76.4482 146.92 77.5771Z" fill="#424242"/>
<path d="M88.5207 19.2152C88.1836 19.2152 87.8465 19.0724 87.6065 18.8325C87.3666 18.5929 87.2305 18.2558 87.2305 17.9187C87.2305 17.5749 87.3666 17.2445 87.6065 16.9981C88.0927 16.5182 88.9613 16.5182 89.4411 16.9981C89.6809 17.2445 89.8235 17.5749 89.8235 17.9187C89.8235 18.2558 89.6811 18.5929 89.4411 18.8325C89.2012 19.0724 88.8641 19.2152 88.5207 19.2152Z" fill="#EFEFF4"/>
<path d="M73.2897 20.5464C72.7808 20.5464 72.2982 20.2449 72.0912 19.7457C71.8172 19.0841 72.1312 18.3258 72.7927 18.0516C72.9982 17.9667 77.8999 15.9672 83.9809 16.0822C84.6968 16.0951 85.2667 16.6861 85.2535 17.402C85.2401 18.1175 84.6316 18.694 83.9336 18.6746C78.3708 18.5847 73.8308 20.4286 73.7854 20.4472C73.6229 20.5144 73.455 20.5464 73.2897 20.5464Z" fill="#EFEFF4"/>
<path d="M194.751 69.25C194.751 69.8203 194.288 70.2825 193.718 70.2825C193.148 70.2825 192.686 69.8203 192.686 69.25C192.686 68.6797 193.148 68.2175 193.718 68.2175C194.288 68.2175 194.751 68.6797 194.751 69.25Z" fill="white"/>
<path d="M136.991 48.2358C136.991 48.8061 136.529 49.2683 135.958 49.2683C135.388 49.2683 134.926 48.8061 134.926 48.2358C134.926 47.6656 135.388 47.2034 135.958 47.2034C136.529 47.2034 136.991 47.6656 136.991 48.2358Z" fill="white"/>
</svg>
